<?xml version="1.0" encoding="utf-8"?>
<!-- Generator: Adobe Illustrator 16.0.0, SVG Export Plug-In . SVG Version: 6.00 Build 0)  -->
<!DOCTYPE svg PUBLIC "-//W3C//DTD SVG 1.1//EN" "http://www.w3.org/Graphics/SVG/1.1/DTD/svg11.dtd">
<svg version="1.1" id="Layer_1" xmlns="http://www.w3.org/2000/svg" xmlns:xlink="http://www.w3.org/1999/xlink" x="0px" y="0px"
	 width="900px" height="900px" viewBox="0 0 900 900" enable-background="new 0 0 900 900" xml:space="preserve">
<g>
	<path fill-rule="evenodd" clip-rule="evenodd" fill="#FFFFFF" d="M850.043,947.896c-273.462,0-546.925,0-820.388,0
		c0-315.784,0-631.569,0-947.354c273.463,0,546.925,0,820.388,0C850.043,316.327,850.043,632.111,850.043,947.896z M524.029,108.731
		c-0.088,0.489-0.149,0.608-0.113,0.663c3.762,5.685,6.084,11.794,5.568,18.75c-0.02,0.264,0.067,0.533,0.085,0.802
		c0.253,3.857,0.939,7.749,0.639,11.563c-0.353,4.476-0.596,8.929-0.716,13.418c-0.143,5.308-0.914,10.598-1.38,15.899
		c-0.553,6.31-2.474,12.318-3.981,18.42c-0.646,2.618-1.156,5.27-1.704,7.911c-0.509,2.455-0.88,4.943-1.504,7.368
		c-0.692,2.691-1.688,5.304-2.396,7.993c-0.89,3.386-1.6,6.818-2.429,10.221c-0.511,2.095-1.215,4.148-1.631,6.259
		c-1.179,5.974-2.274,11.963-3.362,17.954c-1.07,5.894-2.232,11.777-3.081,17.703c-0.572,3.996-0.754,8.056-0.953,12.095
		c-0.189,3.832-0.204,7.673-0.234,11.511c-0.011,1.343,0.33,2.702,0.221,4.03c-0.771,9.388,1.536,18.392,3.371,27.449
		c0.586,2.892,1.688,5.689,2.147,8.594c0.487,3.075,1.433,5.938,2.753,8.713c0.425,0.893,1.098,1.7,1.359,2.631
		c0.992,3.512,2.9,6.58,4.815,9.582c1.915,3.001,4.294,5.711,6.521,8.508c3.13,3.931,6.312,7.798,9.859,11.396
		c3.549,3.599,7.361,6.82,11.383,9.833c2.363,1.77,4.599,3.773,7.149,5.215c4.063,2.297,8.324,4.249,12.536,6.277
		c2.826,1.361,5.674,2.695,8.582,3.868c2.242,0.904,4.631,1.438,6.885,2.318c2.965,1.158,6.021,1.76,9.174,2.023
		c2.496,0.208,5.021,0.31,7.474,0.775c9.142,1.734,18.425,2.019,27.657,2.75c4.098,0.325,8.271-0.366,12.382-0.128
		c6.131,0.355,12.135-0.875,18.226-1.003c6.027-0.127,12.037-0.896,18.063-1.256c5.129-0.307,10.116-1.355,15.035-2.71
		c4.588-1.264,9.104-2.785,13.654-4.188c0.769-0.237,1.563-0.399,2.316-0.678c3.279-1.214,6.456-2.961,9.842-3.584
		c6.623-1.217,12.231-4.69,18.129-7.465c3.93-1.849,7.464-4.557,11.11-6.977c1.174-0.778,2.717-1.678,3.095-2.846
		c0.918-2.835,2.303-5.689,1.515-8.86c-0.15-0.606-0.182-1.248-0.222-1.876c-0.411-6.373-0.734-12.752-1.236-19.117
		c-0.495-6.272-0.631-12.588-2.055-18.763c-0.805-3.491-1.434-7.028-2.379-10.479c-1.281-4.673-2.747-9.297-4.215-13.916
		c-1.765-5.554-3.706-11.054-5.405-16.628c-1.907-6.256-3.881-12.511-5.367-18.874c-1.67-7.149-4.109-13.912-7.6-20.381
		c-4.096-7.59-8.55-14.938-13.662-21.871c-3.352-4.545-7.187-8.749-10.359-13.409c-4.861-7.141-10.228-13.884-15.574-20.644
		c-2.217-2.803-4.916-5.229-7.435-7.79c-2.069-2.103-4.046-4.333-6.323-6.189c-6.346-5.17-12.803-10.206-19.263-15.235
		c-3.97-3.09-7.943-6.188-12.062-9.073c-7.301-5.116-14.926-9.732-22.793-13.924c-2.51-1.337-5.278-2.186-7.786-3.524
		c-3.335-1.779-6.619-3.555-10.313-4.572c-5.927-1.632-11.396-4.59-17.559-5.684c-5.257-0.933-10.339-2.769-15.623-3.758
		c-3.511-0.658-6.939-1.785-10.379-2.79c-3.369-0.984-6.69-1.807-10.294-1.825c-4.01-0.02-8.021-0.784-12.022-1.286
		C529.44,109.578,526.729,109.129,524.029,108.731z M216.583,330.257c1.562,1.164,2.744,2.112,3.992,2.963
		c4.592,3.133,9.989,3.898,15.254,4.721c4.765,0.745,9.646,0.788,14.48,1.043c4.107,0.217,8.227,0.212,12.332,0.454
		c6.278,0.37,12.458-0.035,18.654-1.25c4.959-0.973,9.805-2.236,14.61-3.755c6.934-2.191,13.971-4.083,20.818-6.514
		c7.363-2.614,14.605-5.591,21.802-8.64c2.875-1.218,5.756-2.722,8.166-4.674c4.96-4.017,10.419-7.254,15.712-10.747
		c2.527-1.667,5.312-2.944,7.964-4.426c2.106-1.177,4.148-2.473,6.291-3.578c2.853-1.472,5.725-2.928,8.681-4.171
		c3.167-1.333,6.55-2.182,9.647-3.646c7.45-3.52,14.914-7.046,22.125-11.02c4.554-2.51,8.837-5.505,13.681-7.509
		c2.635-1.09,5.231-2.279,7.802-3.513c3.708-1.78,7.276-3.892,11.083-5.41c5.648-2.251,11.452-4.114,17.195-6.126
		c2.022-0.708,4.128-1.223,6.072-2.099c1.692-0.761,3.153-2.022,4.817-2.859c4.176-2.099,8.412-4.075,12.617-6.115
		c2.007-0.974,3.871-2.038,5.353-3.872c1.687-2.088,3.657-4.01,5.769-5.671c1.809-1.424,3.148-3.141,4.412-4.981
		c0.755-1.1,1.821-2.127,2.152-3.349c1.242-4.588,2.223-9.246,3.336-13.87c0.69-2.871,1.404-5.738,2.178-8.588
		c0.73-2.689,1.687-5.324,2.307-8.036c1.522-6.657,2.761-13.381,4.4-20.007c1.088-4.396,1.53-8.843,1.927-13.312
		c0.421-4.747,0.723-9.504,1.076-14.257c0.166-2.239,0.618-4.501,0.442-6.713c-0.492-6.174,0.152-12.417-1.43-18.538
		c-0.84-3.251-1.675-6.378-3.926-8.985c-2.146-2.485-2.959-2.948-6.074-3.676c-8.837-2.066-17.876-1.979-26.846-2.444
		c-5.729-0.296-11.504-0.641-17.254,0.333c-2.639,0.447-5.375,0.284-8.043,0.605c-4.096,0.494-8.161,1.23-12.255,1.746
		c-3.348,0.422-6.724,0.619-10.075,1.017c-2.228,0.265-4.469,0.569-6.644,1.103c-2.856,0.702-5.632,1.725-8.479,2.47
		c-5.035,1.319-10.126,2.431-15.14,3.823c-4.406,1.223-8.796,2.553-13.089,4.121c-5.723,2.09-11.332,4.489-17.013,6.696
		c-5.76,2.237-11.534,4.41-17.039,7.271c-5.743,2.984-11.674,5.607-17.405,8.611c-5.325,2.792-10.782,5.353-15.737,8.833
		c-3.812,2.676-7.743,5.188-11.678,7.683c-6.708,4.254-12.817,9.298-18.789,14.479c-4.549,3.948-8.736,8.319-13.006,12.581
		c-2.097,2.093-4.254,4.196-5.957,6.597c-2.435,3.435-4.649,7.055-6.645,10.765c-2.383,4.431-4.436,9.04-6.63,13.572
		c-0.747,1.543-1.552,3.062-2.225,4.636c-2.365,5.529-4.672,11.083-7.021,16.618c-2.039,4.805-4.11,9.597-6.156,14.399
		c-0.879,2.064-1.925,4.083-2.542,6.225c-0.672,2.335-1.258,4.649-2.558,6.753c-0.846,1.369-1.505,2.866-2.142,4.351
		c-1.981,4.619-3.96,9.239-5.849,13.896c-2.166,5.339-4.161,10.748-6.37,16.068c-1.547,3.726-3.255,7.389-5.021,11.017
		c-2.084,4.283-4.336,8.485-6.456,12.751C217.61,327.375,217.181,328.741,216.583,330.257z M321.487,334.731
		c-0.428,1.881-0.392,3.574-1.157,4.745c-2.373,3.629-4.329,7.416-5.769,11.504c-0.652,1.849-1.341,3.777-2.46,5.351
		c-4.005,5.632-5.666,12.184-7.679,18.609c-0.105,0.337-0.098,0.712-0.122,1.072c-0.272,4.2-0.33,8.427-0.863,12.593
		c-0.682,5.329,0.191,10.398,1.769,15.42c0.346,1.102,0.827,2.161,1.231,3.245c0.495,1.327,0.946,2.671,1.475,3.984
		c0.297,0.737,0.927,1.396,1.038,2.144c0.653,4.395,3.251,7.743,5.94,10.982c2.447,2.947,5.231,5.611,7.747,8.505
		c3.293,3.789,7.487,6.402,11.687,8.939c5.895,3.561,12.034,6.717,17.952,10.242c3.53,2.104,6.834,4.585,10.245,6.892
		c2.658,1.798,5.333,3.571,7.978,5.39c1.405,0.967,2.675,2.157,4.152,2.985c3.645,2.045,7.305,4.087,11.09,5.849
		c3.416,1.591,6.949,2.989,10.538,4.133c2.991,0.953,6.132,1.453,9.22,2.084c7.226,1.479,14.523,2.259,21.906,1.96
		c4.43-0.18,8.862-0.009,13.292-0.628c4.865-0.679,9.812-0.771,14.674-1.465c4.443-0.635,8.856-1.59,13.22-2.665
		c5.752-1.416,11.501-2.899,17.139-4.706c4.95-1.586,9.788-3.556,14.594-5.552c3.149-1.31,6.188-2.903,9.215-4.486
		c3.725-1.948,7.393-4.006,11.074-6.036c2.951-1.627,6.061-3.038,8.795-4.976c6.682-4.734,13.194-9.707,19.752-14.615
		c0.715-0.535,1.298-1.255,1.909-1.92c2.06-2.238,3.901-4.729,6.2-6.683c3.825-3.25,6.92-7.179,10.513-10.639
		c3.095-2.98,5.844-6.318,8.861-9.383c1.675-1.702,2.354-3.881,3.629-5.82c-1.603-0.571-2.984-0.976-4.295-1.546
		c-4.851-2.109-9.61-4.445-14.855-5.499c-0.474-0.096-0.895-0.511-1.313-0.814c-2.599-1.876-5.014-4.106-7.832-5.552
		c-3.069-1.574-5.51-3.873-8.165-5.907c-3.904-2.993-7.643-6.211-10.906-9.94c-1.587-1.814-3.421-3.416-4.966-5.263
		c-2.984-3.568-5.902-7.196-8.732-10.888c-1.963-2.563-3.738-5.27-5.585-7.92c-0.563-0.809-1.247-1.582-1.598-2.479
		c-1.208-3.092-2.12-6.309-3.463-9.336c-2.46-5.546-3.506-11.491-5.045-17.284c-1.214-4.572-1.804-9.317-2.559-14.003
		c-0.472-2.923-1.167-5.906-0.987-8.814c0.238-3.867-0.962-7.652-0.146-11.548c0.463-2.215,0.052-4.599,0.203-6.896
		c0.282-4.297,0.638-8.591,1.059-12.877c0.343-3.485,0.727-6.973,1.271-10.431c0.743-4.709,1.658-9.391,2.499-14.085
		c-2.449,1.856-4.621,3.873-6.496,6.135c-1.081,1.305-2.313,2.17-3.814,2.771c-0.666,0.267-1.398,0.401-2.02,0.743
		c-3.229,1.778-6.348,3.779-9.666,5.365c-3.311,1.582-6.359,3.639-9.966,4.729c-3.756,1.136-7.291,3.004-10.922,4.555
		c-1.57,0.67-3.131,1.364-4.709,2.017c-3.324,1.377-6.602,2.899-10,4.062c-5.275,1.803-10.517,3.785-15.336,6.491
		c-5.928,3.329-11.579,7.147-17.881,9.797c-0.083,0.035-0.175,0.068-0.239,0.127c-2.27,2.118-5.188,3.09-7.872,4.481
		c-1.979,1.026-3.879,2.199-5.834,3.271c-3.627,1.988-7.305,3.888-10.896,5.941c-3.726,2.131-7.379,4.391-11.052,6.615
		c-3.364,2.037-6.71,4.104-10.07,6.148c-0.749,0.456-1.497,0.927-2.289,1.296c-3.992,1.862-8.069,3.556-11.984,5.566
		c-5.741,2.949-11.543,5.724-17.587,8.01C331.194,330.724,326.24,332.817,321.487,334.731z M404.04,486.796
		c0.631,2.484,1.198,4.805,1.813,7.112c0.579,2.17,1.437,4.293,1.772,6.497c0.974,6.403,1.672,12.846,1.744,19.335
		c0.045,4.056,0.109,8.114,0.015,12.169c-0.131,5.662-0.376,11.323-0.628,16.981c-0.075,1.703-0.245,3.412-0.528,5.092
		c-0.594,3.53-1.242,7.054-1.96,10.561c-0.933,4.554-1.482,9.173-3.081,13.608c-1.544,4.283-2.584,8.748-3.884,13.122
		c-0.406,1.366-0.878,2.719-1.419,4.038c-1.09,2.654-2.315,5.255-3.364,7.925c-2.426,6.172-4.641,12.431-7.211,18.541
		c-1.765,4.194-4.123,8.137-5.96,12.305c-1.677,3.803-3.781,7.314-6.132,10.717c-0.956,1.383-1.563,3.024-2.603,4.329
		c-2.882,3.612-5.024,7.737-8.143,11.199c-3.525,3.915-6.726,8.118-10.145,12.132c-1.779,2.088-3.736,4.025-5.59,6.051
		c-1.595,1.743-1.625,1.985,0.057,3.732c1.988,2.063,4.339,3.836,6.046,6.101c3.233,4.287,6.783,8.313,9.777,12.817
		c3.73,5.611,6.345,11.729,8.776,17.875c2.396,6.06,3.913,12.483,5.583,18.809c0.982,3.719,1.76,7.53,2.188,11.35
		c0.631,5.632,0.902,11.307,1.26,16.968c0.194,3.058,0.479,6.136,0.315,9.184c-0.241,4.49-0.763,8.971-1.32,13.437
		c-0.501,4.014-1.019,8.043-1.89,11.985c-0.713,3.227-2.086,6.303-2.938,9.507c-1.481,5.578-3.751,10.855-5.882,16.19
		c-0.264,0.661-0.59,1.298-0.898,1.939c-1.756,3.652-3.812,7.193-5.199,10.979c-1.774,4.844-4.373,9.189-7.006,13.551
		c-1.553,2.572-3.109,5.143-4.902,8.107c1.173-0.092,1.891-0.024,2.53-0.217c9.526-2.862,19.233-5.112,28.534-8.747
		c4.845-1.895,9.904-3.236,14.818-4.962c5.056-1.776,10.072-3.671,15.073-5.6c3.511-1.354,6.952-2.886,10.45-4.275
		c6.275-2.493,12.604-4.854,18.844-7.428c5.599-2.309,11.115-4.82,16.659-7.262c2.472-1.088,4.987-2.102,7.373-3.358
		c4.773-2.515,9.467-5.181,14.203-7.769c1.419-0.775,2.924-1.409,4.296-2.258c4.825-2.984,9.621-6.017,14.407-9.064
		c5.454-3.473,10.909-6.946,16.313-10.495c1.721-1.131,3.283-2.504,4.917-3.766c1.06-0.818,2.205-1.547,3.16-2.471
		c3.866-3.739,7.686-7.527,11.498-11.32c2.805-2.792,5.784-5.445,8.313-8.472c5.073-6.071,9.932-12.323,14.774-18.58
		c0.852-1.1,1.404-2.537,1.741-3.906c1.01-4.09,1.853-8.222,2.735-12.342c0.131-0.607,0.158-1.241,0.179-1.865
		c0.028-0.915,0.007-1.832,0.007-3.045c-1.001,0-2.158-0.055-3.31,0.01c-4.701,0.265-9.344-0.149-13.852-1.487
		c-3.769-1.118-7.484-2.43-11.187-3.758c-2.28-0.818-4.535-1.738-6.725-2.775c-3.252-1.539-6.052-3.761-8.853-6.005
		c-3.78-3.028-7.686-5.895-10.867-9.598c-0.469-0.545-1.056-0.987-1.563-1.501c-2.521-2.551-5.119-5.033-7.525-7.688
		c-2.039-2.252-4.029-4.547-5.49-7.286c-0.921-1.726-2.505-3.087-3.513-4.777c-2.518-4.225-4.854-8.557-7.304-12.822
		c-2.629-4.577-5.509-9.002-7.327-14.023c-2.229-6.153-4.684-12.223-6.431-18.546c-1.408-5.096-2.892-10.171-4.405-15.236
		c-2.439-8.164-4.495-16.419-5.78-24.844c-0.863-5.665-1.54-11.358-2.266-17.043c-0.623-4.879-0.771-9.768-0.688-14.695
		c0.096-5.668-0.307-11.344-0.377-17.018c-0.043-3.487-0.013-6.989,0.246-10.465c0.276-3.725,0.882-7.425,1.302-11.141
		c0.411-3.646,0.424-7.379,1.259-10.921c0.683-2.894-0.445-6.153,1.744-8.729c0.122-0.145-0.058-0.523-0.05-0.792
		c0.071-2.241-0.045-4.513,0.286-6.717c0.368-2.455,1.143-4.849,1.749-7.268c0.188-0.749,0.401-1.492,0.675-2.506
		c-0.894,0.413-1.42,0.836-1.981,0.889c-6.029,0.57-12.056,1.253-18.101,1.563c-6.097,0.314-12.214,0.284-18.323,0.326
		c-3.334,0.023-6.693,0.11-9.997-0.243C411.331,488.364,407.84,487.501,404.04,486.796z M473.395,484.517
		c-0.289,0.773-0.475,1.66-0.918,2.391c-2.878,4.738-4.186,9.902-3.856,15.387c0.334,5.561,1.958,10.782,4.101,15.978
		c2.79,6.765,7.295,12.146,12.398,17.041c3.881,3.721,8.359,6.817,13.096,9.463c2.336,1.305,4.614,2.711,6.962,3.993
		c1.971,1.076,3.931,2.236,6.024,3.011c3.86,1.428,7.789,2.691,11.739,3.852c4.125,1.212,8.292,2.296,12.586,2.779
		c1.947,0.22,3.895,0.449,5.839,0.703c3.374,0.44,6.733,1.09,10.121,1.32c8.679,0.589,17.376,0.687,26.074,0.637
		c1.967-0.011,3.939-0.064,5.898,0.068c2.363,0.16,4.71,0.59,7.074,0.738c4.836,0.304,9.678,0.54,14.52,0.725
		c5.735,0.218,11.479,0.581,17.21,0.458c5.613-0.12,11.23-0.628,16.816-1.239c3.572-0.392,7.132-1.116,10.622-1.988
		c4.62-1.155,9.16-2.623,13.747-3.914c3.202-0.901,6.501-1.523,9.621-2.646c3.695-1.329,7.311-2.928,10.833-4.668
		c2.291-1.132,5.15-1.314,6.733-3.748c0.126-0.192,0.46-0.331,0.707-0.349c2.438-0.178,3.728-2.2,5.012-3.699
		c1.964-2.295,3.378-5.096,4.827-7.787c1.913-3.551,3.646-7.197,5.433-10.813c1.11-2.247,2.159-4.524,3.27-6.771
		c1.385-2.802,2.921-5.535,4.187-8.389c2.467-5.566,4.819-11.183,7.166-16.802c2.242-5.368,4.445-10.754,6.608-16.154
		c1.934-4.827,3.645-9.749,5.713-14.518c3.397-7.835,5.81-16.004,8.514-24.076c2.178-6.499,4.063-13.071,5.104-19.861
		c0.599-3.902,1.368-7.786,1.782-11.707c0.709-6.708,1.209-13.438,1.771-20.16c0.077-0.928,0.01-1.867,0.01-3.146
		c-1.097,0.7-1.831,1.161-2.558,1.634c-1.857,1.208-3.582,2.734-5.593,3.572c-5.022,2.092-9.516,5.167-14.44,7.412
		c-1.126,0.513-2.325,0.872-3.509,1.245c-1.267,0.4-2.565,0.699-3.831,1.101c-2.469,0.785-4.911,1.651-7.388,2.411
		c-2.72,0.835-5.646,1.094-7.979,2.977c-0.271,0.219-0.638,0.38-0.981,0.436c-3.361,0.547-6.54,1.697-9.782,2.683
		c-3.305,1.005-6.66,2.106-10.219,2.186c-3.041,0.067-6.075,0.37-9.113,0.557c-6.555,0.403-13.114,0.741-19.662,1.234
		c-2.041,0.154-4.047,0.742-6.076,1.085c-0.942,0.159-1.906,0.307-2.856,0.287c-2.238-0.046-4.474-0.264-6.711-0.284
		c-1.979-0.019-3.965,0.275-5.937,0.182c-3.757-0.177-7.504-0.562-11.258-0.806c-4.493-0.293-9.013-0.326-13.479-0.837
		c-7.404-0.847-14.775-1.988-22.162-2.99c-0.146-0.02-0.317,0.14-0.532,0.242c-0.496,1.296-0.963,2.65-1.523,3.963
		c-1.567,3.673-5.271,5.702-7.084,9.267c-0.853,1.676-2.605,2.907-3.996,4.293c-3.156,3.144-6.379,6.221-9.503,9.396
		c-2.507,2.547-4.947,5.163-7.349,7.81c-4.752,5.239-10.365,9.392-16.288,13.184c-1.042,0.666-1.862,1.675-2.796,2.513
		c-0.654,0.586-1.257,1.271-2.003,1.704c-2.492,1.441-5.072,2.733-7.553,4.193c-1.377,0.812-2.512,2.106-3.952,2.722
		c-3.806,1.625-7.31,3.76-10.92,5.736c-6.158,3.372-12.77,5.813-19.409,8.079C487.438,480.151,480.495,482.25,473.395,484.517z
		 M339.481,674.255c2.315-2.007,5.07-3.924,7.221-6.372c3.123-3.555,6.864-6.52,9.625-10.423c1.547-2.188,3.596-4.017,5.236-6.147
		c3.453-4.486,6.359-9.358,9.313-14.17c3.04-4.951,5.773-10.117,8.289-15.358c2.624-5.466,4.896-11.105,7.193-16.721
		c1.858-4.542,3.616-9.13,5.251-13.757c1.851-5.234,3.569-10.518,5.237-15.814c0.752-2.388,1.344-4.839,1.825-7.297
		c0.655-3.345,1.163-6.72,1.682-10.09c0.561-3.638,1.161-7.275,1.559-10.933c0.348-3.195,0.508-6.415,0.625-9.629
		c0.188-5.206,0.441-10.418,0.349-15.622c-0.079-4.48-0.677-8.95-0.904-13.431c-0.207-4.088-1.049-7.979-2.497-11.82
		c-1.065-2.827-1.601-5.854-2.349-8.798c-0.062-0.241,0.072-0.528,0.094-0.796c0.167-2.045,0.164-2.036-1.988-2.494
		c-0.432-0.092-0.846-0.272-1.262-0.432c-2.76-1.054-5.349-2.429-7.955-3.826c-3.139-1.681-6.606-2.738-9.887-4.166
		c-4.597-2.002-9.214-3.975-13.704-6.196c-2.643-1.309-5.038-3.108-7.577-4.632c-7.253-4.351-14.152-9.177-20.418-14.884
		c-2.055-1.871-4.073-3.855-6.393-5.345c-2.876-1.846-5.381-4.097-7.968-6.269c-1.623-1.363-3.152-2.836-4.782-4.314
		c-1.991,3.05-3.895,5.978-5.813,8.897c-0.838,1.275-1.627,2.593-2.577,3.782c-2.077,2.602-4.196,5.174-6.385,7.683
		c-2.412,2.766-4.76,5.618-7.427,8.124c-3.831,3.599-7.836,7.026-11.933,10.322c-3.558,2.863-7.238,5.606-11.061,8.1
		c-4.533,2.957-9.26,5.618-13.935,8.353c-2.846,1.664-5.681,3.373-8.648,4.796c-3.781,1.814-7.606,3.533-11.512,5.107
		c-4.648,1.872-9.408,3.256-13.802,4.537c0.11,0.971,0.22,1.85,0.306,2.73c0.06,0.619-0.042,1.284,0.15,1.854
		c1.206,3.581,2.375,7.18,3.741,10.7c2.917,7.52,5.336,15.188,7.326,23.002c0.798,3.135,1.884,6.201,2.594,9.354
		c1.481,6.576,2.755,13.198,4.201,19.782c0.922,4.202,1.813,8.427,3.051,12.541c2.042,6.792,4.251,13.538,6.591,20.233
		c1.444,4.132,2.849,8.313,5.123,12.099c1.005,1.674,2.153,3.261,3.245,4.882c0.691,1.026,1.253,2.192,2.125,3.037
		c2.309,2.238,4.717,4.38,7.158,6.477c1.833,1.574,3.622,3.288,5.7,4.467c5.301,3.008,10.254,6.585,15.901,9.052
		c4.25,1.857,8.122,4.562,12.227,6.769c5.374,2.889,10.911,5.486,16.192,8.529c5.212,3.004,10.231,6.35,15.26,9.659
		C335.248,670.807,337.214,672.514,339.481,674.255z M466.085,520.602c-0.323,0.495-0.561,0.693-0.579,0.911
		c-0.397,4.569-1.027,9.137-1.091,13.712c-0.123,8.865-0.899,17.747,0.284,26.603c0.095,0.711,0.142,1.474-0.012,2.163
		c-1.022,4.59,0.169,9.098,0.497,13.627c0.233,3.212,0.79,6.404,1.294,9.591c0.769,4.869,1.564,9.734,2.441,14.585
		c1.297,7.169,3.416,14.126,5.563,21.075c0.98,3.175,1.915,6.369,2.721,9.592c1.596,6.38,4.129,12.407,6.795,18.381
		c1.419,3.178,3.028,6.271,4.558,9.398c0.94,1.925,1.731,3.946,2.87,5.747c3.08,4.872,6.203,9.724,9.517,14.438
		c2.425,3.45,4.951,6.884,7.841,9.938c3.991,4.22,8.327,8.118,12.588,12.075c5.219,4.846,11.587,7.759,18.126,10.253
		c3.077,1.174,6.336,1.95,9.574,2.597c3.127,0.623,6.329,1.121,9.505,1.16c2.567,0.031,5.161-0.618,7.709-1.133
		c1.239-0.251,2.294-0.951,2.838-2.277c1.519-3.702,3.046-7.403,4.688-11.052c1.645-3.655,3.201-7.38,5.21-10.833
		c2.65-4.557,5.616-8.938,8.607-13.284c2.999-4.355,5.809-8.838,9.383-12.803c3.73-4.139,7.104-8.599,10.702-12.859
		c2.029-2.403,4.122-4.764,6.321-7.011c4.088-4.176,8.301-8.23,12.414-12.384c2.729-2.757,5.498-5.488,8.029-8.421
		c5.216-6.047,10.32-12.19,15.399-18.354c3.014-3.656,5.946-7.383,8.813-11.156c2.759-3.632,5.389-7.361,8.071-11.052
		c2.103-2.892,4.218-5.774,6.293-8.686c2.746-3.853,5.475-7.718,8.181-11.599c1.208-1.732,2.344-3.515,3.512-5.274
		c-0.126-0.147-0.253-0.295-0.379-0.442c-0.731,0.22-1.476,0.407-2.192,0.667c-2.191,0.797-4.353,1.678-6.561,2.421
		c-3.483,1.174-6.981,2.308-10.499,3.372c-2.658,0.804-5.361,1.458-8.037,2.205c-3.181,0.89-6.352,1.813-9.53,2.709
		c-1.948,0.549-3.878,1.2-5.859,1.58c-2.897,0.557-5.829,0.945-8.756,1.336c-1.426,0.19-2.871,0.26-4.311,0.32
		c-2.948,0.124-5.901,0.154-8.847,0.323c-1.951,0.111-3.893,0.571-5.838,0.563c-3.123-0.013-6.243-0.377-9.367-0.421
		c-4.208-0.059-8.422,0.161-12.626,0.025c-1.747-0.057-3.477-0.713-5.21-1.118c-0.43-0.101-0.839-0.415-1.258-0.415
		c-3.727,0.002-7.362-1.143-11.141-0.733c-1.681,0.182-3.427-0.226-5.142-0.383c-1.879-0.173-3.754-0.381-5.633-0.547
		c-5.35-0.473-10.746-0.407-16.029-1.632c-2.625-0.609-5.342-0.819-7.972-1.41c-4.741-1.066-9.46-2.245-14.167-3.454
		c-2.611-0.671-5.254-1.315-7.759-2.29c-8.205-3.193-16.059-7.14-23.7-11.508c-3.419-1.955-6.711-4.115-9.66-6.729
		c-3.232-2.866-6.477-5.736-9.495-8.82c-2.881-2.944-5.456-6.176-7.081-10.048C467.263,522.801,466.694,521.815,466.085,520.602z
		 M213.778,336.145c-1.72,0.84-2.775,1.985-3.47,3.524c-0.366,0.811-0.827,1.595-1.349,2.316c-3.065,4.229-6.182,8.422-9.241,12.656
		c-1.579,2.185-3.043,4.451-4.617,6.638c-2.2,3.057-4.453,6.076-6.689,9.107c-1.017,1.377-1.966,2.816-3.089,4.101
		c-4.616,5.277-9.286,10.505-13.938,15.75c-0.712,0.803-1.385,1.648-2.159,2.387c-2.736,2.61-5.515,5.175-8.265,7.77
		c-2.22,2.095-4.343,4.3-6.652,6.291c-2.779,2.396-5.38,5.076-9.095,6.156c-1.044,0.303-2.047,0.964-2.682,2.105
		c2.387,0.647,4.601,1.35,6.861,1.842c6.525,1.423,12.865,3.375,18.811,6.458c2.14,1.11,4.314,2.213,6.269,3.606
		c3.647,2.602,7.035,5.574,10.73,8.1c6.209,4.247,10.952,9.729,14.574,16.251c1.836,3.306,3.729,6.586,5.416,9.968
		c1.561,3.132,2.917,6.368,4.296,9.587c1.088,2.542,2.152,5.1,3.089,7.699c1.4,3.884,2.655,7.819,4.024,11.714
		c0.525,1.494,1.195,2.938,1.865,4.564c1.549-0.25,2.849-0.471,4.152-0.666c0.517-0.077,1.065-0.218,1.558-0.121
		c1.242,0.245,2.282-0.087,3.328-0.738c0.758-0.473,1.621-1.051,2.454-1.079c3.646-0.127,6.658-2.013,9.78-3.464
		c5.517-2.564,11.141-4.918,16.226-8.378c4.802-3.267,9.926-6.063,14.699-9.369c3.53-2.445,6.711-5.391,10.072-8.083
		c1.12-0.897,2.415-1.595,3.454-2.571c2.345-2.202,4.563-4.539,6.864-6.789c1.791-1.75,3.811-3.299,5.403-5.208
		c2.152-2.581,3.988-5.426,5.972-8.148c0.423-0.581,0.918-1.109,1.347-1.686c2.389-3.22,4.847-6.398,6.502-10.118
		c-0.25-0.375-0.423-0.69-0.646-0.963c-2.671-3.27-4.916-6.809-6.497-10.726c-1.034-2.56-1.755-5.25-2.849-7.781
		c-2.345-5.425-3.392-11.164-3.691-16.961c-0.51-9.859,0.581-19.6,3.534-29.072c0.425-1.365,0.948-2.714,1.572-4
		c2.747-5.66,5.576-11.281,8.299-16.952c0.463-0.965,0.555-2.108,0.9-3.501c-3.207,1.043-5.907,1.932-8.612,2.799
		c-2.042,0.654-4.16,1.124-6.126,1.954c-4.143,1.75-8.494,2.749-12.883,3.372c-4.03,0.573-8.084,1.301-12.2,1.087
		c-0.991-0.052-1.988-0.186-2.973-0.128c-3.842,0.225-7.649,0.192-11.498-0.27c-4.985-0.599-10.023-0.793-15.042-1.088
		c-3.558-0.209-7.084-0.27-10.615-1.146C224.547,343.353,218.579,341.106,213.778,336.145z"/>
	<path fill-rule="evenodd" clip-rule="evenodd" d="M524.225,108.726c-0.006-0.021-0.012-0.041-0.018-0.062
		c-0.186-0.643,27.231,4.724,29.103,5.17c12.584,2.999,25.417,5.472,37.603,9.886c47.727,17.287,87.667,48.94,115.62,91.08
		c11.88,17.909,20.533,37.953,27.592,58.327c5.053,14.584,9.661,29.344,13.031,44.416c3.058,13.673,8.459,32.315,4.646,46.24
		c-2.844,10.382-12.23,15.699-21.499,19.723c-23.183,10.064-47.764,15.458-72.907,16.964c-29.418,1.763-62.614,2.312-89.607-11.212
		c-25.256-12.654-47.352-35.83-55.37-63.048c-16.915-57.42,12.174-113.379,17.08-170.177
		C530.954,139.161,528.843,124.801,524.225,108.726z"/>
	<path fill-rule="evenodd" clip-rule="evenodd" d="M216.583,330.257c-0.654-0.487,24.4-57.597,26.479-62.984
		c8.469-21.951,17.354-43.986,30.303-63.748c36.047-55.011,109.696-86.632,173.004-94.989c25.32-3.342,73.272-14.506,78.673,21.438
		c1.892,12.592-0.699,26.203-3.308,38.515c-4.365,20.609-6.256,45.726-19.377,62.994c-9.309,12.25-24.657,18.022-38.184,24.187
		c-12.476,5.685-25.006,11.249-37.488,16.92c-48.389,21.986-94.299,57.073-147.816,65.433
		C259.623,341.029,233.154,342.605,216.583,330.257z"/>
	<path fill-rule="evenodd" clip-rule="evenodd" d="M323.543,336.819c12.777-12.878,34.354-17.125,50.166-25.502
		c20.031-10.613,39.322-22.556,59.324-33.222c11.004-5.868,22.239-11.371,33.797-16.03c7.005-2.823,14.362-4.785,21.179-8.08
		c3.209-1.551,6.279-3.33,8.966-5.686c1.44-1.263,7.628-6.194,7.88-7.599c-6.329,35.271-6.061,71.417,7.17,105.278
		c5.763,14.742,19.486,27.065,31.782,36.485c4.555,3.489,9.265,7.123,14.151,10.134c5.472,3.372,12.121,5.075,18.018,7.639
		c1.311,0.57,2.692,0.975,4.295,1.546c-1.274,1.939-1.954,4.119-3.629,5.82c-14.838,15.076-29.563,30.719-47.235,43.24
		c-32.581,23.086-81.237,36.346-120.767,28.735c-11.561-2.226-23.694-6.472-33.988-12.247
		c-28.885-16.207-72.763-37.059-71.128-76.277c0.698-16.749,7.436-39.442,18.408-52.472
		C322.454,337.962,322.991,337.375,323.543,336.819z"/>
	<path fill-rule="evenodd" clip-rule="evenodd" d="M404.313,487.063c0.808,5.705,53.538,0.938,58.71-0.53
		c-6.409,35.683-9.673,70.996-3.396,106.999c5.902,33.851,16.998,73.484,40.87,99.337c14.464,15.662,37.384,32.23,59.72,30.98
		c1.151-0.064,2.309-0.01,3.31-0.01c0,1.213,0.021,2.13-0.007,3.045c-1.04,33.599-41.301,60.017-66.519,75.398
		c-28.73,17.524-59.32,29.855-90.642,41.854c-17.502,6.704-35.143,12.31-53.364,16.702c11.427-22.869,22.978-43.224,27.744-68.849
		c4.441-23.873,3.648-49.592-6.192-72.078c-6.343-14.493-14.871-26.366-25.755-37.671c-1.682-1.747-1.652-1.989-0.057-3.732
		c33.568-36.662,59.288-86.682,61.448-137.038C411.005,522.296,406.943,505.647,404.313,487.063z"/>
	<path fill-rule="evenodd" clip-rule="evenodd" d="M473.395,484.517c24.604-7.854,49.234-16.754,69.742-32.941
		c9.126-7.202,18.398-14.329,26.646-22.551c4.327-4.314,12.836-22.147,16.892-24.074c0.215-0.102,0.386-0.261,0.532-0.242
		c28.113,3.74,56.669,5.586,84.929,2.314c28.806-3.336,52.233-13.539,78.171-25.599c3.435,32.183-10.497,63.393-22.402,92.504
		c-12.976,31.729-20.627,64.371-55.077,79.566c-38.152,16.828-85.73,10.743-125.871,6.144c-19.043-2.182-39.558-6.853-55.499-18.042
		c-9.147-6.42-16.411-17.014-20.087-27.487C469.696,509.343,465.376,487.076,473.395,484.517z"/>
	<path fill-rule="evenodd" clip-rule="evenodd" d="M339.377,672.347c-0.817,0.077-1.635,0.049-2.449-0.098
		c-14.972-2.692-26.65-17.313-39.919-23.976c-18.271-9.173-34.881-18.247-44.19-37.339c-9.228-18.923-11.813-39.761-16.744-59.992
		c-3.851-15.802-9.949-30.918-13.706-46.759c-0.025-0.104,41.427-18.005,45.572-20.696c19.94-12.946,34.467-29.231,47.354-48.968
		c-1.817,2.783,39.142,30.666,42.965,32.913c11.677,6.863,29.7,8.986,38.672,19.699c7.053,8.421,5.655,25.035,6.003,35.367
		c1.494,44.308-11.746,92.349-39.372,127.44C358.348,656.563,348.846,671.461,339.377,672.347z"/>
	<path fill-rule="evenodd" clip-rule="evenodd" d="M466.085,520.602c0.609,1.214,1.178,2.199,1.614,3.239
		c10.332,24.639,42.66,36.298,66.558,41.743c27.966,6.372,57.907,10.08,86.558,7.439c18.718-1.726,37.014-6.121,54.801-12.107
		c2.208-0.743,4.369-1.624,6.561-2.421c0.717-0.26,1.461-0.447,2.192-0.667c0.126,0.147,0.253,0.295,0.379,0.442
		c-1.168,1.76-2.304,3.542-3.512,5.274c-2.706,3.881-5.435,7.746-8.181,11.599c-17.137,24.042-36.118,46.726-56.793,67.804
		c-12.492,12.736-23.699,26.767-32.959,42.03c-6.577,10.841-10.733,26.672-24.721,30.21c-12.133,3.069-28.174-5.45-37.777-12.357
		c-11.276-8.11-19.23-20.083-25.979-32.009c-13.724-24.259-23.658-50.763-27.646-78.403c-3.399-23.562-3.693-47.214-1.675-70.905
		C465.524,521.295,465.762,521.097,466.085,520.602z"/>
	<path fill-rule="evenodd" clip-rule="evenodd" d="M213.987,338.536c1.308-0.202,2.858-0.158,4.751,0.181
		c7.524,1.349,13.869,6.927,21.599,7.517c24.563,1.877,46.505-2.239,70.312-7.595c-3.533,15.03-12.665,26.31-13.884,42.399
		c-1.219,16.089,2.497,33.605,12.868,46.313c0.223,0.273,0.396,0.588,0.646,0.963c1.806,2.718-14.782,20.272-16.564,22.211
		c-7.243,7.88-15.298,15.006-24.104,21.097c-8.194,5.667-16.221,11.611-25.074,16.235c-2.127,1.111-24.655,10.311-26.069,6.876
		c-0.669-1.626-1.339-3.069-1.864-4.563c-11.758-33.435-30.055-65.282-67.209-73.384c-2.26-0.493-4.475-1.195-6.861-1.842
		c0.635-1.141,1.637-1.802,2.682-2.105c12.851-3.732,24.26-20.216,32.479-29.933c7.038-8.319,13.642-16.995,20.036-25.815
		C201.536,351.842,206.802,339.644,213.987,338.536z"/>
</g>
</svg>
