<?xml version="1.0" encoding="utf-8"?>
<!-- Generator: Adobe Illustrator 16.0.0, SVG Export Plug-In . SVG Version: 6.00 Build 0)  -->
<!DOCTYPE svg PUBLIC "-//W3C//DTD SVG 1.1//EN" "http://www.w3.org/Graphics/SVG/1.1/DTD/svg11.dtd">
<svg version="1.1" id="Layer_1" xmlns="http://www.w3.org/2000/svg" xmlns:xlink="http://www.w3.org/1999/xlink" x="0px" y="0px"
	 fill="#720590" fill-opacity="0.7" width="700px" height="700px" viewBox="0 0 900 900" enable-background="new 0 0 900 900" xml:space="preserve">
<g>
	<path fill-rule="evenodd" clip-rule="evenodd" d="M524.225,108.726c-0.006-0.021-0.012-0.041-0.018-0.062
		c-0.186-0.643,27.231,4.724,29.103,5.17c12.584,2.999,25.417,5.472,37.603,9.886c47.727,17.287,87.667,48.94,115.62,91.08
		c11.88,17.909,20.533,37.953,27.592,58.327c5.053,14.584,9.661,29.344,13.031,44.416c3.058,13.673,8.459,32.315,4.646,46.24
		c-2.844,10.382-12.23,15.699-21.499,19.723c-23.183,10.064-47.764,15.458-72.907,16.964c-29.418,1.763-62.614,2.312-89.607-11.212
		c-25.256-12.654-47.352-35.83-55.37-63.048c-16.915-57.42,12.174-113.379,17.08-170.177
		C530.954,139.161,528.843,124.801,524.225,108.726z"/>
	<path fill-rule="evenodd" clip-rule="evenodd" d="M216.583,330.257c-0.654-0.487,24.4-57.597,26.479-62.984
		c8.469-21.951,17.354-43.986,30.303-63.748c36.047-55.011,109.696-86.632,173.004-94.989c25.32-3.342,73.272-14.506,78.673,21.438
		c1.892,12.592-0.699,26.203-3.308,38.515c-4.365,20.609-6.256,45.726-19.377,62.994c-9.309,12.25-24.657,18.022-38.184,24.187
		c-12.476,5.685-25.006,11.249-37.488,16.92c-48.389,21.986-94.299,57.073-147.816,65.433
		C259.623,341.029,233.154,342.605,216.583,330.257z"/>
	<path fill-rule="evenodd" clip-rule="evenodd" d="M323.543,336.819c12.777-12.878,34.354-17.125,50.166-25.502
		c20.031-10.613,39.322-22.556,59.324-33.222c11.004-5.868,22.239-11.371,33.797-16.03c7.005-2.823,14.362-4.785,21.179-8.08
		c3.209-1.551,6.279-3.33,8.966-5.686c1.44-1.263,7.628-6.194,7.88-7.599c-6.329,35.271-6.061,71.417,7.17,105.278
		c5.763,14.742,19.486,27.065,31.782,36.485c4.555,3.489,9.265,7.123,14.151,10.134c5.472,3.372,12.121,5.075,18.018,7.639
		c1.311,0.57,2.692,0.975,4.295,1.546c-1.274,1.939-1.954,4.119-3.629,5.82c-14.838,15.076-29.563,30.719-47.235,43.24
		c-32.581,23.086-81.237,36.346-120.767,28.735c-11.561-2.226-23.694-6.472-33.988-12.247
		c-28.885-16.207-72.763-37.059-71.128-76.277c0.698-16.749,7.436-39.442,18.408-52.472
		C322.454,337.962,322.991,337.375,323.543,336.819z"/>
	<path fill-rule="evenodd" clip-rule="evenodd" d="M404.313,487.063c0.808,5.705,53.538,0.938,58.71-0.53
		c-6.409,35.683-9.673,70.996-3.396,106.999c5.902,33.851,16.998,73.484,40.87,99.337c14.464,15.662,37.384,32.23,59.72,30.98
		c1.151-0.064,2.309-0.01,3.31-0.01c0,1.213,0.021,2.13-0.007,3.045c-1.04,33.599-41.301,60.017-66.519,75.398
		c-28.73,17.524-59.32,29.855-90.642,41.854c-17.502,6.704-35.143,12.31-53.364,16.702c11.427-22.869,22.978-43.224,27.744-68.849
		c4.441-23.873,3.648-49.592-6.192-72.078c-6.343-14.493-14.871-26.366-25.755-37.671c-1.682-1.747-1.652-1.989-0.057-3.732
		c33.568-36.662,59.288-86.682,61.448-137.038C411.005,522.296,406.943,505.647,404.313,487.063z"/>
	<path fill-rule="evenodd" clip-rule="evenodd" d="M473.395,484.517c24.604-7.854,49.234-16.754,69.742-32.941
		c9.126-7.202,18.398-14.329,26.646-22.551c4.327-4.314,12.836-22.147,16.892-24.074c0.215-0.102,0.386-0.261,0.532-0.242
		c28.113,3.74,56.669,5.586,84.929,2.314c28.806-3.336,52.233-13.539,78.171-25.599c3.435,32.183-10.497,63.393-22.402,92.504
		c-12.976,31.729-20.627,64.371-55.077,79.566c-38.152,16.828-85.73,10.743-125.871,6.144c-19.043-2.182-39.558-6.853-55.499-18.042
		c-9.147-6.42-16.411-17.014-20.087-27.487C469.696,509.343,465.376,487.076,473.395,484.517z"/>
	<path fill-rule="evenodd" clip-rule="evenodd" d="M339.377,672.347c-0.817,0.077-1.635,0.049-2.449-0.098
		c-14.972-2.692-26.65-17.313-39.919-23.976c-18.271-9.173-34.881-18.247-44.19-37.339c-9.228-18.923-11.813-39.761-16.744-59.992
		c-3.851-15.802-9.949-30.918-13.706-46.759c-0.025-0.104,41.427-18.005,45.572-20.696c19.94-12.946,34.467-29.231,47.354-48.968
		c-1.817,2.783,39.142,30.666,42.965,32.913c11.677,6.863,29.7,8.986,38.672,19.699c7.053,8.421,5.655,25.035,6.003,35.367
		c1.494,44.308-11.746,92.349-39.372,127.44C358.348,656.563,348.846,671.461,339.377,672.347z"/>
	<path fill-rule="evenodd" clip-rule="evenodd" d="M466.085,520.602c0.609,1.214,1.178,2.199,1.614,3.239
		c10.332,24.639,42.66,36.298,66.558,41.743c27.966,6.372,57.907,10.08,86.558,7.439c18.718-1.726,37.014-6.121,54.801-12.107
		c2.208-0.743,4.369-1.624,6.561-2.421c0.717-0.26,1.461-0.447,2.192-0.667c0.126,0.147,0.253,0.295,0.379,0.442
		c-1.168,1.76-2.304,3.542-3.512,5.274c-2.706,3.881-5.435,7.746-8.181,11.599c-17.137,24.042-36.118,46.726-56.793,67.804
		c-12.492,12.736-23.699,26.767-32.959,42.03c-6.577,10.841-10.733,26.672-24.721,30.21c-12.133,3.069-28.174-5.45-37.777-12.357
		c-11.276-8.11-19.23-20.083-25.979-32.009c-13.724-24.259-23.658-50.763-27.646-78.403c-3.399-23.562-3.693-47.214-1.675-70.905
		C465.524,521.295,465.762,521.097,466.085,520.602z"/>
	<path fill-rule="evenodd" clip-rule="evenodd" d="M213.987,338.536c1.308-0.202,2.858-0.158,4.751,0.181
		c7.524,1.349,13.869,6.927,21.599,7.517c24.563,1.877,46.505-2.239,70.312-7.595c-3.533,15.03-12.665,26.31-13.884,42.399
		c-1.219,16.089,2.497,33.605,12.868,46.313c0.223,0.273,0.396,0.588,0.646,0.963c1.806,2.718-14.782,20.272-16.564,22.211
		c-7.243,7.88-15.298,15.006-24.104,21.097c-8.194,5.667-16.221,11.611-25.074,16.235c-2.127,1.111-24.655,10.311-26.069,6.876
		c-0.669-1.626-1.339-3.069-1.864-4.563c-11.758-33.435-30.055-65.282-67.209-73.384c-2.26-0.493-4.475-1.195-6.861-1.842
		c0.635-1.141,1.637-1.802,2.682-2.105c12.851-3.732,24.26-20.216,32.479-29.933c7.038-8.319,13.642-16.995,20.036-25.815
		C201.536,351.842,206.802,339.644,213.987,338.536z"/>
</g>
</svg>
