<?xml version="1.0" encoding="UTF-8"?>
<svg xmlns="http://www.w3.org/2000/svg" xmlns:xlink="http://www.w3.org/1999/xlink" width="700pt" height="700pt" viewBox="0 0 700 700" version="1.1">
<g id="surface1">
<path style=" stroke:none;fill-rule:evenodd;fill:rgb(0%,0%,0%);fill-opacity:1;" d="M 407.730469 84.566406 C 407.726562 84.546875 407.722656 84.53125 407.714844 84.515625 C 407.570312 84.015625 428.894531 88.191406 430.351562 88.539062 C 440.140625 90.871094 450.121094 92.792969 459.597656 96.226562 C 496.71875 109.671875 527.785156 134.292969 549.527344 167.066406 C 558.765625 180.996094 565.496094 196.585938 570.984375 212.433594 C 574.917969 223.773438 578.5 235.253906 581.121094 246.976562 C 583.5 257.613281 587.699219 272.113281 584.734375 282.941406 C 582.523438 291.015625 575.222656 295.152344 568.011719 298.28125 C 549.980469 306.109375 530.863281 310.304688 511.308594 311.476562 C 488.425781 312.847656 462.609375 313.273438 441.613281 302.757812 C 421.96875 292.914062 404.785156 274.886719 398.546875 253.71875 C 385.390625 209.058594 408.015625 165.535156 411.832031 121.359375 C 412.964844 108.238281 411.324219 97.066406 407.730469 84.566406 Z M 407.730469 84.566406 "/>
<path style=" stroke:none;fill-rule:evenodd;fill:rgb(0%,0%,0%);fill-opacity:1;" d="M 168.453125 256.867188 C 167.945312 256.488281 187.429688 212.070312 189.046875 207.878906 C 195.636719 190.804688 202.546875 173.667969 212.617188 158.296875 C 240.652344 115.511719 297.9375 90.917969 347.175781 84.417969 C 366.871094 81.816406 404.164062 73.132812 408.367188 101.089844 C 409.835938 110.882812 407.824219 121.472656 405.792969 131.046875 C 402.398438 147.078125 400.925781 166.613281 390.722656 180.042969 C 383.480469 189.570312 371.542969 194.058594 361.023438 198.855469 C 351.320312 203.277344 341.574219 207.605469 331.867188 212.015625 C 294.230469 229.113281 258.523438 256.40625 216.898438 262.90625 C 201.929688 265.246094 181.34375 266.46875 168.453125 256.867188 Z M 168.453125 256.867188 "/>
<path style=" stroke:none;fill-rule:evenodd;fill:rgb(0%,0%,0%);fill-opacity:1;" d="M 251.644531 261.96875 C 261.582031 251.953125 278.363281 248.652344 290.664062 242.136719 C 306.242188 233.882812 321.246094 224.59375 336.804688 216.296875 C 345.363281 211.730469 354.101562 207.453125 363.089844 203.828125 C 368.539062 201.632812 374.261719 200.105469 379.5625 197.542969 C 382.058594 196.335938 384.445312 194.953125 386.535156 193.121094 C 387.65625 192.140625 392.46875 188.304688 392.664062 187.210938 C 387.742188 214.644531 387.949219 242.757812 398.242188 269.09375 C 402.722656 280.558594 413.398438 290.144531 422.960938 297.472656 C 426.503906 300.183594 430.167969 303.011719 433.96875 305.351562 C 438.222656 307.976562 443.394531 309.300781 447.980469 311.292969 C 449 311.738281 450.074219 312.054688 451.320312 312.496094 C 450.332031 314.003906 449.800781 315.699219 448.5 317.023438 C 436.957031 328.75 425.507812 340.917969 411.761719 350.65625 C 386.421875 368.609375 348.578125 378.925781 317.832031 373.003906 C 308.839844 371.273438 299.402344 367.96875 291.394531 363.480469 C 268.929688 350.875 234.800781 334.65625 236.074219 304.152344 C 236.617188 291.125 241.859375 273.476562 250.390625 263.339844 C 250.796875 262.859375 251.214844 262.402344 251.644531 261.96875 Z M 251.644531 261.96875 "/>
<path style=" stroke:none;fill-rule:evenodd;fill:rgb(0%,0%,0%);fill-opacity:1;" d="M 314.464844 378.828125 C 315.09375 383.265625 356.105469 379.554688 360.128906 378.414062 C 355.144531 406.167969 352.605469 433.632812 357.488281 461.636719 C 362.078125 487.964844 370.707031 518.789062 389.277344 538.898438 C 400.523438 551.078125 418.351562 563.964844 435.722656 562.992188 C 436.621094 562.945312 437.519531 562.984375 438.296875 562.984375 C 438.296875 563.929688 438.316406 564.640625 438.292969 565.355469 C 437.484375 591.488281 406.171875 612.035156 386.554688 623.996094 C 364.210938 637.625 340.417969 647.21875 316.058594 656.550781 C 302.445312 661.765625 288.722656 666.125 274.550781 669.539062 C 283.4375 651.753906 292.421875 635.921875 296.128906 615.992188 C 299.585938 597.421875 298.96875 577.417969 291.3125 559.929688 C 286.382812 548.660156 279.746094 539.425781 271.28125 530.632812 C 269.972656 529.273438 269.996094 529.085938 271.238281 527.726562 C 297.347656 499.214844 317.351562 460.308594 319.03125 421.144531 C 319.671875 406.230469 316.511719 393.28125 314.464844 378.828125 Z M 314.464844 378.828125 "/>
<path style=" stroke:none;fill-rule:evenodd;fill:rgb(0%,0%,0%);fill-opacity:1;" d="M 368.195312 376.847656 C 387.332031 370.738281 406.488281 363.816406 422.441406 351.226562 C 429.539062 345.625 436.75 340.082031 443.164062 333.6875 C 446.53125 330.332031 453.148438 316.460938 456.304688 314.960938 C 456.46875 314.882812 456.601562 314.757812 456.714844 314.773438 C 478.582031 317.683594 500.792969 319.117188 522.773438 316.574219 C 545.175781 313.980469 563.398438 306.042969 583.570312 296.664062 C 586.242188 321.695312 575.40625 345.96875 566.148438 368.609375 C 556.054688 393.289062 550.105469 418.675781 523.3125 430.496094 C 493.636719 443.582031 456.632812 438.851562 425.410156 435.273438 C 410.601562 433.578125 394.644531 429.945312 382.246094 421.242188 C 375.128906 416.246094 369.480469 408.007812 366.621094 399.863281 C 365.320312 396.15625 361.960938 378.835938 368.195312 376.847656 Z M 368.195312 376.847656 "/>
<path style=" stroke:none;fill-rule:evenodd;fill:rgb(0%,0%,0%);fill-opacity:1;" d="M 263.960938 522.9375 C 263.324219 522.996094 262.6875 522.976562 262.054688 522.859375 C 250.410156 520.765625 241.328125 509.394531 231.007812 504.210938 C 216.796875 497.078125 203.878906 490.019531 196.636719 475.171875 C 189.460938 460.453125 187.449219 444.246094 183.613281 428.511719 C 180.617188 416.21875 175.875 404.464844 172.953125 392.140625 C 172.933594 392.0625 205.175781 378.136719 208.398438 376.046875 C 223.90625 365.976562 235.207031 353.308594 245.230469 337.960938 C 243.816406 340.125 275.671875 361.8125 278.648438 363.558594 C 287.730469 368.894531 301.746094 370.546875 308.726562 378.878906 C 314.210938 385.429688 313.125 398.351562 313.394531 406.386719 C 314.554688 440.847656 304.257812 478.214844 282.769531 505.507812 C 278.714844 510.660156 271.324219 522.246094 263.960938 522.9375 Z M 263.960938 522.9375 "/>
<path style=" stroke:none;fill-rule:evenodd;fill:rgb(0%,0%,0%);fill-opacity:1;" d="M 362.511719 404.914062 C 362.984375 405.855469 363.425781 406.621094 363.765625 407.433594 C 371.800781 426.59375 396.945312 435.664062 415.535156 439.898438 C 437.285156 444.855469 460.570312 447.738281 482.855469 445.683594 C 497.414062 444.34375 511.644531 440.921875 525.480469 436.269531 C 527.195312 435.691406 528.878906 435.003906 530.582031 434.386719 C 531.140625 434.183594 531.71875 434.039062 532.285156 433.867188 C 532.386719 433.980469 532.484375 434.09375 532.582031 434.210938 C 531.671875 435.578125 530.789062 436.964844 529.851562 438.3125 C 527.746094 441.332031 525.621094 444.335938 523.488281 447.332031 C 510.160156 466.03125 495.394531 483.675781 479.316406 500.070312 C 469.597656 509.976562 460.882812 520.886719 453.679688 532.761719 C 448.566406 541.191406 445.332031 553.503906 434.453125 556.257812 C 425.015625 558.644531 412.539062 552.019531 405.070312 546.644531 C 396.300781 540.335938 390.113281 531.027344 384.863281 521.75 C 374.191406 502.882812 366.464844 482.265625 363.363281 460.769531 C 360.71875 442.445312 360.488281 424.046875 362.058594 405.621094 C 362.074219 405.453125 362.257812 405.296875 362.511719 404.914062 Z M 362.511719 404.914062 "/>
<path style=" stroke:none;fill-rule:evenodd;fill:rgb(0%,0%,0%);fill-opacity:1;" d="M 166.433594 263.304688 C 167.453125 263.148438 168.65625 263.183594 170.128906 263.445312 C 175.980469 264.496094 180.917969 268.835938 186.929688 269.292969 C 206.035156 270.753906 223.097656 267.550781 241.617188 263.386719 C 238.867188 275.074219 231.765625 283.847656 230.816406 296.363281 C 229.867188 308.875 232.757812 322.5 240.824219 332.382812 C 241 332.597656 241.132812 332.839844 241.328125 333.132812 C 242.734375 335.246094 229.832031 348.898438 228.445312 350.410156 C 222.8125 356.539062 216.546875 362.078125 209.699219 366.816406 C 203.324219 371.226562 197.082031 375.847656 190.195312 379.445312 C 188.542969 380.308594 171.019531 387.464844 169.917969 384.792969 C 169.398438 383.527344 168.878906 382.40625 168.46875 381.242188 C 159.324219 355.238281 145.09375 330.46875 116.195312 324.167969 C 114.4375 323.785156 112.714844 323.238281 110.859375 322.734375 C 111.355469 321.847656 112.132812 321.332031 112.945312 321.097656 C 122.941406 318.195312 131.816406 305.375 138.207031 297.816406 C 143.679688 291.34375 148.816406 284.597656 153.789062 277.738281 C 156.75 273.65625 160.847656 264.167969 166.433594 263.304688 Z M 166.433594 263.304688 "/>
</g>
</svg>
